<?xml version="1.0" encoding="UTF-8"?>
<!DOCTYPE svg PUBLIC "-//W3C//DTD SVG 1.1//EN" "http://www.w3.org/Graphics/SVG/1.1/DTD/svg11.dtd">
<!-- Creator: CorelDRAW 2021 (64-Bit) -->
<svg xmlns="http://www.w3.org/2000/svg" xml:space="preserve" width="1156.43mm" height="292.677mm" version="1.1" style="shape-rendering:geometricPrecision; text-rendering:geometricPrecision; image-rendering:optimizeQuality; fill-rule:evenodd; clip-rule:evenodd"
viewBox="0 0 163402.51 41355.14"
 xmlns:xlink="http://www.w3.org/1999/xlink"
 xmlns:xodm="http://www.corel.com/coreldraw/odm/2003">
 <defs>
  <style type="text/css">
   <![CDATA[
    .fil0 {fill:#6FACDE}
    .fil1 {fill:#6FACDE;fill-rule:nonzero}
   ]]>
  </style>
 </defs>
 <g id="Layer_x0020_1">
  <metadata id="CorelCorpID_0Corel-Layer"/>
  <path class="fil0" d="M20677.57 0c11419.91,0 20677.57,9257.66 20677.57,20677.57 0,11419.91 -9257.66,20677.57 -20677.57,20677.57 -11419.91,0 -20677.57,-9257.66 -20677.57,-20677.57 0,-11419.91 9257.66,-20677.57 20677.57,-20677.57zm5177.26 21469.74l10335.72 0 0 6994.96 -1227 0c0,-3019.03 -2441.39,-5817.46 -5542.19,-5817.46l-3566.53 0 0 -1177.51zm-9743.48 3381.07c-719.27,-2157.78 -3449.59,-3140.45 -7169.99,-5233.17 -3720.39,-2092.73 -3361.16,-5164.07 -3361.16,-5164.07 29.96,-3379.09 2778.53,-6109.11 6164.74,-6109.11 3386.16,0 6134.74,2730.02 6164.68,6109.11l-1294.88 0c-29.91,-2663.92 -2198.73,-4814.29 -4869.8,-4814.29 -2671.13,0 -4839.95,2150.37 -4869.86,4814.29 32.95,2362.81 1884.38,3766.52 3858.37,4745.05 1277.69,633.39 4150.42,2019.03 5018.9,3254.85l0.89 0.14c-5.51,-142.84 -9.16,-286.19 -9.16,-430.4 0,-6068.19 4919.21,-10987.42 10987.46,-10987.42 4019.32,0 7534.6,2158.18 9450.14,5378.88l-1461.9 0c-1765.96,-2510.61 -4685.51,-4151.14 -7988.24,-4151.14 -5390.19,0 -9759.74,4369.56 -9759.74,9759.68 0,5390.18 4369.55,9759.74 9759.74,9759.74l0 1227.74c-5090.3,0 -9371.56,-3461.68 -10619.28,-8159.21l-0.92 -0.66zm-4781.93 6414.73l55.28 1323.65c-18.38,0.17 -36.84,0.24 -55.28,0.24 -3390.61,0 -6141.96,-2737.14 -6164.83,-6122.39l1323.93 0c22.86,2654.01 2181.44,4798.5 4840.89,4798.5z"/>
  <path class="fil1" d="M57399.57 16387.15c-209.59,-234.25 -443.84,-440.76 -702.74,-619.53 -258.9,-178.77 -536.3,-326.71 -832.2,-443.84 -295.88,-117.12 -616.43,-206.51 -961.64,-268.16 -345.21,-61.63 -715.06,-92.45 -1109.58,-92.45 -1282.19,0 -2216.1,243.49 -2801.73,730.48 -585.62,483.91 -878.42,1140.41 -878.42,1966.44 0,551.72 132.52,992.47 397.6,1319.19 265.06,326.71 681.16,588.7 1248.28,785.95 567.13,197.27 1300.69,385.28 2200.7,570.21 949.31,197.25 1769.18,428.42 2459.59,693.5 690.42,265.06 1223.64,625.67 1599.67,1081.85 376.03,453.08 564.04,1069.52 564.04,1846.23 0,576.37 -110.96,1084.94 -332.87,1522.6 -221.92,437.68 -542.48,798.3 -961.66,1078.78 -419.16,283.56 -915.41,499.31 -1488.69,647.25 -573.29,147.95 -1211.3,221.92 -1914.04,221.92 -678.08,0 -1325.35,-73.97 -1941.79,-221.92 -616.43,-147.94 -1195.89,-363.69 -1738.35,-647.25 -542.46,-283.56 -1047.95,-647.26 -1516.44,-1091.1l499.31 -758.23c271.24,295.9 576.37,557.88 915.41,785.96 339.05,228.09 708.91,422.26 1109.6,582.54 400.68,160.28 829.12,286.64 1285.27,379.11 456.17,92.47 930.82,138.7 1423.97,138.7 1146.57,0 2043.5,-212.67 2690.77,-638.01 647.25,-422.26 970.88,-1054.11 970.88,-1892.47 0,-576.37 -147.94,-1044.87 -443.84,-1402.4 -295.9,-357.54 -752.05,-650.35 -1368.5,-875.35 -616.43,-228.09 -1386.98,-440.76 -2311.65,-638.01 -924.65,-197.27 -1710.61,-419.18 -2357.88,-665.76 -647.26,-246.57 -1134.24,-579.46 -1460.95,-995.54 -326.71,-419.18 -490.07,-986.31 -490.07,-1701.37 0,-785.96 194.17,-1454.81 582.54,-2003.43 388.35,-548.64 933.9,-961.66 1636.64,-1245.22 702.74,-283.56 1510.27,-425.34 2422.61,-425.34 567.12,0 1094.18,55.47 1581.16,166.44 486.99,110.96 937,280.48 1350,508.57 413.02,228.09 798.3,514.73 1155.83,859.93l-480.83 739.73zm3180.84 6888.7l0 -5538.71 924.66 0 0 5406.18c0,1195.9 200.33,2083.57 601.02,2669.19 400.68,582.54 1007.89,875.34 1821.58,875.34 542.48,0 1063.36,-120.2 1562.67,-360.61 499.32,-240.42 940.08,-576.37 1322.27,-1014.05 382.2,-437.66 665.76,-943.15 850.69,-1522.6l0 -6053.44 924.65 0 0 8377.42c0,147.94 33.91,258.9 101.72,332.87 67.81,73.97 163.36,117.12 286.64,129.44l0 758.23c-123.28,12.34 -218.83,18.5 -286.64,18.5 -67.81,0 -126.38,-6.16 -175.69,-18.5 -209.59,-24.66 -382.19,-114.04 -517.81,-268.14 -135.62,-154.12 -209.59,-342.13 -221.92,-560.97l-18.48 -1442.46c-419.18,764.37 -995.55,1365.41 -1729.12,1800 -733.56,437.68 -1525.68,656.51 -2376.36,656.51 -1010.97,0 -1775.36,-357.53 -2293.16,-1069.52 -517.81,-715.07 -776.71,-1772.26 -776.71,-3174.66zm18807.56 4059.25l-924.66 0 0 -5341.45c0,-1226.72 -175.68,-2126.71 -527.05,-2696.93 -351.37,-570.2 -909.25,-856.84 -1673.64,-856.84 -542.46,0 -1075.68,129.44 -1599.67,385.27 -523.97,258.9 -980.14,610.27 -1368.49,1060.28 -388.36,446.92 -668.84,952.39 -841.44,1516.44l0 5933.22 -924.66 0 0 -9597.97 869.18 0 0 2302.4c258.9,-490.07 604.11,-918.49 1035.63,-1279.11 431.5,-363.69 912.33,-650.35 1442.46,-856.84 530.14,-209.59 1078.78,-314.39 1645.9,-314.39 530.14,0 977.06,95.55 1340.75,286.64 363.7,188.01 659.6,462.33 887.69,819.88 228.07,354.45 391.43,798.29 490.07,1325.33 98.63,527.06 147.94,1131.17 147.94,1806.17l0 5507.88zm2792.47 0l0 -9616.45 924.66 0 0 9616.45 -924.66 0zm0 -11798.65l0 -1701.37 924.66 0 0 1701.37 -924.66 0zm8118.5 11410.29c-61.65,24.66 -184.93,86.31 -369.87,184.93 -184.93,98.64 -419.18,188.01 -702.74,268.16 -283.56,80.13 -597.95,120.2 -943.16,120.2 -332.87,0 -644.17,-64.73 -933.9,-194.17 -289.72,-132.54 -520.89,-326.71 -693.48,-588.71 -172.61,-258.9 -258.9,-576.36 -258.9,-946.23l0 -7295.56 -1350 0 0 -758.23 1350 0 0 -3291.78 924.65 0 0 3291.78 2237.68 0 0 758.23 -2237.68 0 0 7076.72c24.66,357.54 154.12,628.77 388.36,807.54 234.25,181.85 505.47,271.24 813.7,271.24 382.19,0 715.06,-64.73 998.63,-194.19 283.56,-129.44 450,-212.67 499.31,-249.65l277.4 739.72zm832.2 -2376.37c0,-576.36 172.6,-1078.77 517.81,-1501.02 345.21,-425.34 819.86,-758.21 1423.97,-995.55 604.11,-240.41 1300.69,-360.61 2089.73,-360.61 493.15,0 1004.79,43.15 1534.92,129.44 530.14,86.31 1004.81,203.43 1423.97,351.38l0 -903.09c0,-884.59 -255.81,-1587.33 -767.45,-2114.39 -511.65,-527.05 -1217.48,-792.12 -2117.47,-792.12 -480.83,0 -980.14,98.63 -1497.94,295.9 -517.82,197.25 -1047.95,480.83 -1590.42,850.68l-388.35 -665.75c628.77,-419.18 1235.96,-736.65 1821.58,-952.4 585.62,-215.75 1168.15,-323.63 1747.61,-323.63 1146.57,0 2052.74,339.05 2718.49,1014.05 665.76,675 998.63,1593.49 998.63,2761.64l0 4752.75c0,144.86 33.91,255.82 101.72,329.79 67.8,73.97 169.52,117.12 305.14,129.44l0 758.23c-110.96,12.34 -203.43,18.5 -277.4,18.5 -73.97,0 -135.62,0 -184.93,0 -234.25,-36.99 -416.1,-135.62 -545.56,-295.9 -129.44,-160.28 -200.33,-339.03 -212.67,-536.3l0 -758.21c-443.84,554.78 -1014.04,986.3 -1710.61,1294.52 -696.58,308.22 -1427.05,462.33 -2191.44,462.33 -604.11,0 -1149.66,-129.46 -1636.64,-388.36 -486.99,-255.82 -869.19,-610.27 -1146.57,-1060.27 -277.4,-446.92 -416.1,-949.32 -416.1,-1501.04zm6620.56 792.12c123.28,-160.26 215.75,-314.38 277.4,-459.24 61.63,-147.95 92.45,-283.56 92.45,-406.86l0 -1584.25c-443.84,-172.6 -906.15,-298.96 -1386.98,-385.27 -480.83,-86.31 -973.98,-129.46 -1479.45,-129.46 -961.66,0 -1741.45,191.09 -2339.4,570.21 -597.94,382.19 -896.91,896.91 -896.91,1547.26 0,406.86 104.79,779.8 314.38,1125 209.59,342.13 502.4,619.53 878.43,826.04 376.03,209.59 810.62,314.38 1303.77,314.38 690.4,0 1328.43,-132.52 1914.04,-394.52 585.62,-265.06 1026.37,-607.19 1322.27,-1023.29zm14387.69 2065.08c-887.67,0 -1707.53,-191.09 -2459.6,-573.29 -752.05,-382.19 -1405.48,-890.75 -1960.28,-1525.68 -554.78,-634.93 -983.22,-1350 -1285.27,-2145.21 -302.06,-795.21 -453.08,-1605.83 -453.08,-2431.85 0,-863.01 147.94,-1692.13 443.84,-2487.34 295.9,-795.21 715.07,-1504.1 1257.54,-2126.71 542.46,-622.61 1183.57,-1115.76 1923.28,-1479.46 739.73,-363.69 1547.27,-545.54 2422.61,-545.54 1306.85,0 2364.05,268.16 3171.58,804.46 807.54,536.3 1420.89,1223.63 1840.07,2061.98l-776.71 462.33c-443.84,-863.01 -1032.53,-1488.7 -1766.1,-1877.06 -733.56,-388.35 -1562.67,-582.54 -2487.34,-582.54 -776.71,0 -1479.45,163.36 -2108.22,490.07 -628.77,326.71 -1165.07,764.39 -1608.91,1313.03 -443.84,548.62 -782.88,1168.15 -1017.13,1858.55 -234.25,690.42 -351.37,1399.32 -351.37,2126.71 0,776.72 135.62,1510.28 406.86,2200.7 271.22,690.4 647.26,1306.85 1128.08,1849.31 480.83,542.46 1041.79,967.82 1682.88,1276.03 641.1,308.22 1325.35,462.33 2052.74,462.33 850.69,0 1652.06,-206.51 2404.11,-619.53 752.07,-413.02 1473.3,-1063.35 2163.71,-1951.04l0 1054.12c-1306.85,1590.41 -2847.95,2385.62 -4623.29,2385.62zm4419.86 -5714.39l-2977.39 0 0 -758.23 3791.09 0 0 6380.15 -813.7 0 0 -5621.93zm2515.09 2857.19c0,-576.36 172.6,-1078.77 517.81,-1501.02 345.21,-425.34 819.86,-758.21 1423.97,-995.55 604.11,-240.41 1300.69,-360.61 2089.73,-360.61 493.15,0 1004.79,43.15 1534.92,129.44 530.14,86.31 1004.81,203.43 1423.97,351.38l0 -903.09c0,-884.59 -255.81,-1587.33 -767.45,-2114.39 -511.65,-527.05 -1217.48,-792.12 -2117.47,-792.12 -480.83,0 -980.14,98.63 -1497.94,295.9 -517.82,197.25 -1047.95,480.83 -1590.42,850.68l-388.35 -665.75c628.77,-419.18 1235.96,-736.65 1821.58,-952.4 585.62,-215.75 1168.15,-323.63 1747.61,-323.63 1146.57,0 2052.74,339.05 2718.49,1014.05 665.76,675 998.63,1593.49 998.63,2761.64l0 4752.75c0,144.86 33.91,255.82 101.72,329.79 67.8,73.97 169.52,117.12 305.14,129.44l0 758.23c-110.96,12.34 -203.43,18.5 -277.4,18.5 -73.97,0 -135.62,0 -184.93,0 -234.25,-36.99 -416.1,-135.62 -545.56,-295.9 -129.44,-160.28 -200.33,-339.03 -212.67,-536.3l0 -758.21c-443.84,554.78 -1014.04,986.3 -1710.61,1294.52 -696.58,308.22 -1427.05,462.33 -2191.44,462.33 -604.11,0 -1149.66,-129.46 -1636.64,-388.36 -486.99,-255.82 -869.19,-610.27 -1146.57,-1060.27 -277.4,-446.92 -416.1,-949.32 -416.1,-1501.04zm6620.56 792.12c123.28,-160.26 215.75,-314.38 277.4,-459.24 61.63,-147.95 92.45,-283.56 92.45,-406.86l0 -1584.25c-443.84,-172.6 -906.15,-298.96 -1386.98,-385.27 -480.83,-86.31 -973.98,-129.46 -1479.45,-129.46 -961.66,0 -1741.45,191.09 -2339.4,570.21 -597.94,382.19 -896.91,896.91 -896.91,1547.26 0,406.86 104.79,779.8 314.38,1125 209.59,342.13 502.4,619.53 878.43,826.04 376.03,209.59 810.62,314.38 1303.77,314.38 690.4,0 1328.43,-132.52 1914.04,-394.52 585.62,-265.06 1026.37,-607.19 1322.27,-1023.29zm11965.09 1972.61l-924.66 0 0 -5341.45c0,-1226.72 -175.68,-2126.71 -527.05,-2696.93 -351.37,-570.2 -909.25,-856.84 -1673.64,-856.84 -542.46,0 -1075.68,129.44 -1599.67,385.27 -523.97,258.9 -980.14,610.27 -1368.49,1060.28 -388.36,446.92 -668.84,952.39 -841.44,1516.44l0 5933.22 -924.66 0 0 -9597.97 869.18 0 0 2302.4c258.9,-490.07 604.11,-918.49 1035.63,-1279.11 431.5,-363.69 912.33,-650.35 1442.46,-856.84 530.14,-209.59 1078.78,-314.39 1645.9,-314.39 530.14,0 977.06,95.55 1340.75,286.64 363.7,188.01 659.6,462.33 887.69,819.88 228.07,354.45 391.43,798.29 490.07,1325.33 98.63,527.06 147.94,1131.17 147.94,1806.17l0 5507.88zm2126.71 -4771.25c0,-896.91 191.09,-1719.86 573.29,-2468.83 382.19,-748.99 906.17,-1353.08 1571.91,-1815.42 665.76,-459.25 1423.97,-690.42 2274.67,-690.42 838.36,0 1581.17,221.92 2228.42,665.76 647.26,443.84 1155.83,973.96 1525.7,1590.41l0 -6010.29 924.65 0 0 12279.48c0,147.94 33.91,258.9 101.72,332.87 67.81,73.97 163.36,117.12 286.64,129.44l0 758.23c-197.25,24.66 -345.21,30.82 -443.84,18.5 -221.91,-36.99 -406.84,-141.78 -554.8,-314.39 -147.94,-172.6 -221.91,-357.53 -221.91,-554.78l0 -1072.6c-394.52,641.09 -924.66,1152.74 -1590.41,1534.92 -665.76,382.2 -1350,573.29 -2052.74,573.29 -665.76,0 -1282.19,-138.7 -1849.33,-413.02 -567.12,-277.4 -1057.19,-650.35 -1470.21,-1115.76 -413.02,-468.49 -733.56,-995.54 -961.64,-1584.25 -228.09,-588.7 -342.13,-1205.13 -342.13,-1843.15zm8173.99 1547.27l0 -3150c-172.61,-465.41 -450,-890.77 -832.2,-1279.11 -382.19,-385.28 -813.7,-693.5 -1294.52,-921.58 -480.83,-224.99 -955.48,-339.03 -1423.97,-339.03 -554.8,0 -1057.2,117.12 -1507.2,348.29 -450,234.25 -838.36,548.62 -1165.07,940.07 -326.71,394.52 -576.37,838.36 -748.97,1334.59 -172.61,496.24 -258.9,1010.97 -258.9,1538.02 0,539.38 98.63,1057.2 295.88,1556.51 197.27,496.23 471.59,936.99 822.96,1325.35 351.37,385.27 758.21,687.32 1220.55,899.99 462.33,215.76 964.72,323.63 1507.2,323.63 332.87,0 687.32,-67.81 1063.35,-203.41 376.03,-135.62 733.57,-320.55 1072.6,-560.97 339.05,-240.41 622.61,-514.73 850.69,-829.1 228.09,-311.3 360.61,-641.1 397.6,-983.22zm11724.68 3223.97l-924.66 0 0 -5341.45c0,-1177.41 -203.43,-2065.08 -610.27,-2659.93 -406.84,-594.87 -998.63,-893.83 -1775.34,-893.83 -505.48,0 -1010.96,129.44 -1516.44,385.27 -505.48,258.9 -943.16,610.27 -1313.01,1060.28 -369.87,446.92 -634.94,952.39 -795.21,1516.44l0 5933.22 -924.66 0 0 -13500.02 924.66 0 0 6204.46c394.51,-748.97 943.15,-1343.83 1645.88,-1787.66 702.74,-440.76 1448.63,-662.68 2237.68,-662.68 542.46,0 1004.79,98.63 1386.98,295.9 382.2,194.17 696.58,477.73 943.16,847.6 246.58,366.79 428.42,810.62 545.54,1325.35 117.12,514.73 175.69,1106.5 175.69,1769.18l0 5507.88zm2792.47 0l0 -9616.45 924.66 0 0 9616.45 -924.66 0zm0 -11798.65l0 -1701.37 924.66 0 0 1701.37 -924.66 0z"/>
 </g>
</svg>
